{
  "source": "C:\\Users\\Peter\\Desktop\\stuff\\MIUN\\quantitative_research\\video_compression\\videos\\BVI-HD\\BVI-HD_CDVL_videos\\ORIG\\CarpetCircleFast_1920x1080_60fps.mp4",
  "output": "C:\\Users\\Peter\\Desktop\\stuff\\MIUN\\quantitative_research\\video_compression\\compressed_videos\\BVI-HD\\av1\\4\\CarpetCircleFast_1920x1080_60fps_av1.mkv",
  "codec": "av1",
  "ok": "Input #0, mov,mp4,m4a,3gp,3g2,mj2, from 'C:\\Users\\Peter\\Desktop\\stuff\\MIUN\\quantitative_research\\video_compression\\videos\\BVI-HD\\BVI-HD_CDVL_videos\\ORIG\\CarpetCircleFast_1920x1080_60fps.mp4':\n  Metadata:\n    major_brand     : isom\n    minor_version   : 512\n    compatible_brands: isomiso2avc1mp41\n    encoder         : Lavf54.28.101\n  Duration: 00:00:05.00, start: 0.000000, bitrate: 324759 kb/s\n  Stream #0:0[0x1](und): Video: h264 (High 4:4:4 Predictive) (avc1 / 0x31637661), yuv420p(progressive), 1920x1080, 324754 kb/s, 60 fps, 60 tbr, 60 tbn (default)\n    Metadata:\n      handler_name    : VideoHandler\n      vendor_id       : [0][0][0][0]\n[out#0/matroska @ 0000023e71c2cd80] Codec AVOption b:a (set bitrate (in bits/s)) has not been used for any stream. The most likely reason is either wrong type (e.g. a video option with no video streams) or that it is a private option of some decoder which was not actually used for any stream.\nStream mapping:\n  Stream #0:0 -> #0:0 (h264 (native) -> av1 (libsvtav1))\nPress [q] to stop, [?] for help\nSvt[info]: -------------------------------------------\nSvt[info]: SVT [version]:\tSVT-AV1 Encoder Lib v3.1.0-19-g6ecfe8ec\nSvt[info]: SVT [build]  :\tGCC 15.2.0\t 64 bit\nSvt[info]: LIB Build date: Aug 17 2025 11:37:13\nSvt[info]: -------------------------------------------\nSvt[info]: Level of Parallelism: 5\nSvt[info]: Number of PPCS 93\nSvt[info]: [asm level on system : up to avx2]\nSvt[info]: [asm level selected : up to avx2]\nSvt[info]: -------------------------------------------\nSvt[info]: SVT [config]: main profile\ttier (auto)\tlevel (auto)\nSvt[info]: SVT [config]: width / height / fps numerator / fps denominator \t\t: 1920 / 1080 / 60 / 1\nSvt[info]: SVT [config]: bit-depth / color format \t\t\t\t\t: 8 / YUV420\nSvt[info]: SVT [config]: preset / tune / pred struct \t\t\t\t\t: 4 / PSNR / random access\nSvt[info]: SVT [config]: gop size / mini-gop size / key-frame type \t\t\t: 321 / 16 / key frame\nSvt[info]: SVT [config]: BRC mode / target bitrate (kbps)\t\t\t\t: VBR / 4000 \nSvt[info]: SVT [config]: AQ mode / Variance Boost \t\t\t\t\t: 2 / 0\nSvt[info]: SVT [config]: sharpness / luminance-based QP bias \t\t\t\t: 0 / 0\nSvt[info]: SVT [config]: QP scale compress strength \t\t\t\t\t: 0\nSvt[info]: -------------------------------------------\nOutput #0, matroska, to 'C:\\Users\\Peter\\Desktop\\stuff\\MIUN\\quantitative_research\\video_compression\\compressed_videos\\BVI-HD\\av1\\4\\CarpetCircleFast_1920x1080_60fps_av1.mkv':\n  Metadata:\n    major_brand     : isom\n    minor_version   : 512\n    compatible_brands: isomiso2avc1mp41\n    encoder         : Lavf62.3.100\n  Stream #0:0(und): Video: av1 (AV01 / 0x31305641), yuv420p(tv, progressive), 1920x1080, q=2-31, 4000 kb/s, 60 fps, 1k tbn (default)\n    Metadata:\n      encoder         : Lavc62.11.100 libsvtav1\n      handler_name    : VideoHandler\n      vendor_id       : [0][0][0][0]\n    Side data:\n      cpb: bitrate max/min/avg: 0/0/4000000 buffer size: 4000000 vbv_delay: N/A\nframe=    0 fps=0.0 q=0.0 size=       0KiB time=N/A bitrate=N/A speed=N/A elapsed=0:00:01.03    \nframe=    0 fps=0.0 q=0.0 size=       0KiB time=N/A bitrate=N/A speed=N/A elapsed=0:00:01.60    \nframe=    0 fps=0.0 q=0.0 size=       0KiB time=N/A bitrate=N/A speed=N/A elapsed=0:00:02.12    \nframe=    0 fps=0.0 q=0.0 size=       0KiB time=N/A bitrate=N/A speed=N/A elapsed=0:00:02.69    \nframe=    1 fps=0.3 q=11.0 size=       1KiB time=00:00:00.00 bitrate=N/A speed=   0x elapsed=0:00:03.21    \nframe=    1 fps=0.3 q=11.0 size=       1KiB time=00:00:00.00 bitrate=N/A speed=   0x elapsed=0:00:03.74    \nframe=    8 fps=1.9 q=30.0 size=       1KiB time=00:00:00.11 bitrate=  48.8kbits/s speed=0.0273x elapsed=0:00:04.27    \nframe=   12 fps=2.5 q=27.0 size=       1KiB time=00:00:00.16 bitrate=  34.2kbits/s speed=0.0346x elapsed=0:00:04.81    \nframe=   19 fps=3.5 q=29.0 size=       1KiB time=00:00:00.30 bitrate=  19.0kbits/s speed=0.0559x elapsed=0:00:05.36    \nframe=   22 fps=3.7 q=20.0 size=       1KiB time=00:00:00.35 bitrate=  16.3kbits/s speed=0.0595x elapsed=0:00:05.88    \nframe=   26 fps=4.1 q=24.0 size=       1KiB time=00:00:00.41 bitrate=  13.7kbits/s speed=0.065x elapsed=0:00:06.40    \nframe=   30 fps=4.3 q=21.0 size=       1KiB time=00:00:00.48 bitrate=  11.8kbits/s speed=0.0696x elapsed=0:00:06.94    \nframe=   35 fps=4.7 q=20.0 size=       1KiB time=00:00:00.56 bitrate=  10.1kbits/s speed=0.0756x elapsed=0:00:07.49    \nframe=   39 fps=4.9 q=16.0 size=       1KiB time=00:00:00.63 bitrate=   9.0kbits/s speed=0.0791x elapsed=0:00:08.01    \nframe=   43 fps=5.0 q=32.0 size=       1KiB time=00:00:00.70 bitrate=   8.1kbits/s speed=0.0816x elapsed=0:00:08.57    \nframe=   45 fps=4.9 q=21.0 size=       1KiB time=00:00:00.73 bitrate=   7.8kbits/s speed=0.0806x elapsed=0:00:09.09    \nframe=   51 fps=5.3 q=23.0 size=       1KiB time=00:00:00.83 bitrate=   6.8kbits/s speed=0.0867x elapsed=0:00:09.61    \nframe=   54 fps=5.3 q=21.0 size=       1KiB time=00:00:00.88 bitrate=   6.4kbits/s speed=0.0873x elapsed=0:00:10.12    \nframe=   59 fps=5.5 q=34.0 size=       1KiB time=00:00:00.96 bitrate=   5.9kbits/s speed=0.0909x elapsed=0:00:10.63    \nframe=   63 fps=5.6 q=22.0 size=       1KiB time=00:00:01.03 bitrate=   5.5kbits/s speed=0.0926x elapsed=0:00:11.15    \nframe=   69 fps=5.9 q=31.0 size=       1KiB time=00:00:01.11 bitrate=   5.1kbits/s speed=0.0957x elapsed=0:00:11.67    \nframe=   74 fps=6.1 q=31.0 size=       1KiB time=00:00:01.20 bitrate=   4.7kbits/s speed=0.0984x elapsed=0:00:12.19    \nframe=   80 fps=6.3 q=29.0 size=       1KiB time=00:00:01.31 bitrate=   4.3kbits/s speed=0.103x elapsed=0:00:12.75    \nframe=   86 fps=6.5 q=29.0 size=       1KiB time=00:00:01.41 bitrate=   4.0kbits/s speed=0.107x elapsed=0:00:13.27    \nframe=   89 fps=6.5 q=27.0 size=       1KiB time=00:00:01.46 bitrate=   3.9kbits/s speed=0.106x elapsed=0:00:13.79    \nframe=   95 fps=6.6 q=29.0 size=       1KiB time=00:00:01.56 bitrate=   3.6kbits/s speed=0.109x elapsed=0:00:14.32    \nframe=  100 fps=6.7 q=29.0 size=       1KiB time=00:00:01.65 bitrate=   3.5kbits/s speed=0.111x elapsed=0:00:14.88    \nframe=  103 fps=6.7 q=29.0 size=       1KiB time=00:00:01.70 bitrate=   3.4kbits/s speed=0.11x elapsed=0:00:15.40    \nframe=  108 fps=6.8 q=30.0 size=       1KiB time=00:00:01.78 bitrate=   3.2kbits/s speed=0.112x elapsed=0:00:15.95    \nframe=  115 fps=7.0 q=28.0 size=       1KiB time=00:00:01.90 bitrate=   3.0kbits/s speed=0.115x elapsed=0:00:16.52    \nframe=  118 fps=6.9 q=24.0 size=       1KiB time=00:00:01.95 bitrate=   2.9kbits/s speed=0.114x elapsed=0:00:17.04    \nframe=  123 fps=7.0 q=29.0 size=       1KiB time=00:00:02.03 bitrate=   2.8kbits/s speed=0.116x elapsed=0:00:17.57    \nframe=  129 fps=7.1 q=10.0 size=       1KiB time=00:00:02.13 bitrate=   2.7kbits/s speed=0.118x elapsed=0:00:18.10    \nframe=  135 fps=7.2 q=28.0 size=       1KiB time=00:00:02.23 bitrate=   2.6kbits/s speed=0.12x elapsed=0:00:18.62    \nframe=  139 fps=7.3 q=23.0 size=       1KiB time=00:00:02.30 bitrate=   2.5kbits/s speed=0.12x elapsed=0:00:19.15    \nframe=  145 fps=7.4 q=10.0 size=       1KiB time=00:00:02.40 bitrate=   2.4kbits/s speed=0.122x elapsed=0:00:19.67    \nframe=  151 fps=7.5 q=29.0 size=       1KiB time=00:00:02.50 bitrate=   2.3kbits/s speed=0.124x elapsed=0:00:20.18    \nframe=  156 fps=7.5 q=28.0 size=       1KiB time=00:00:02.58 bitrate=   2.2kbits/s speed=0.125x elapsed=0:00:20.72    \nframe=  163 fps=7.7 q=30.0 size=       1KiB time=00:00:02.70 bitrate=   2.1kbits/s speed=0.127x elapsed=0:00:21.28    \nframe=  167 fps=7.7 q=21.0 size=       1KiB time=00:00:02.76 bitrate=   2.1kbits/s speed=0.127x elapsed=0:00:21.79    \nframe=  173 fps=7.8 q=21.0 size=       1KiB time=00:00:02.86 bitrate=   2.0kbits/s speed=0.128x elapsed=0:00:22.31    \nframe=  182 fps=8.0 q=29.0 size=       1KiB time=00:00:03.01 bitrate=   1.9kbits/s speed=0.132x elapsed=0:00:22.84    \nframe=  185 fps=7.9 q=21.0 size=       1KiB time=00:00:03.06 bitrate=   1.9kbits/s speed=0.131x elapsed=0:00:23.36    \nframe=  193 fps=8.1 q=11.0 size=       1KiB time=00:00:03.20 bitrate=   1.8kbits/s speed=0.134x elapsed=0:00:23.88    \nframe=  198 fps=8.1 q=28.0 size=       1KiB time=00:00:03.28 bitrate=   1.7kbits/s speed=0.135x elapsed=0:00:24.40    \nframe=  202 fps=8.1 q=26.0 size=       1KiB time=00:00:03.35 bitrate=   1.7kbits/s speed=0.134x elapsed=0:00:24.91    \nframe=  209 fps=8.2 q=16.0 size=       1KiB time=00:00:03.43 bitrate=   1.7kbits/s speed=0.135x elapsed=0:00:25.44    \nframe=  215 fps=8.3 q=25.0 size=       1KiB time=00:00:03.56 bitrate=   1.6kbits/s speed=0.137x elapsed=0:00:25.98    \nframe=  221 fps=8.3 q=26.0 size=       1KiB time=00:00:03.66 bitrate=   1.6kbits/s speed=0.138x elapsed=0:00:26.49    \nframe=  229 fps=8.5 q=29.0 size=       1KiB time=00:00:03.80 bitrate=   1.5kbits/s speed=0.141x elapsed=0:00:27.02    \nframe=  233 fps=8.5 q=25.0 size=       1KiB time=00:00:03.86 bitrate=   1.5kbits/s speed=0.14x elapsed=0:00:27.54    \nframe=  241 fps=8.6 q=10.0 size=       1KiB time=00:00:04.00 bitrate=   1.4kbits/s speed=0.143x elapsed=0:00:28.06    \nframe=  249 fps=8.7 q=25.0 size=       1KiB time=00:00:04.13 bitrate=   1.4kbits/s speed=0.144x elapsed=0:00:28.60    \nframe=  257 fps=8.8 q=11.0 size=       1KiB time=00:00:04.23 bitrate=   1.3kbits/s speed=0.145x elapsed=0:00:29.14    \nframe=  265 fps=8.9 q=25.0 size=       1KiB time=00:00:04.40 bitrate=   1.3kbits/s speed=0.148x elapsed=0:00:29.67    \nframe=  269 fps=8.9 q=20.0 size=       1KiB time=00:00:04.46 bitrate=   1.3kbits/s speed=0.148x elapsed=0:00:30.21    \nframe=  281 fps=9.1 q=21.0 size=       1KiB time=00:00:04.66 bitrate=   1.2kbits/s speed=0.152x elapsed=0:00:30.73    \nframe=  293 fps=9.4 q=22.0 size=       1KiB time=00:00:04.86 bitrate=   1.2kbits/s speed=0.156x elapsed=0:00:31.25    \n[out#0/matroska @ 0000023e71c2cd80] video:2144KiB audio:0KiB subtitle:0KiB other streams:0KiB global headers:0KiB muxing overhead: 0.097324%\nframe=  300 fps=9.6 q=33.0 Lsize=    2146KiB time=00:00:04.98 bitrate=3528.4kbits/s speed=0.159x elapsed=0:00:31.36    \n",
  "seconds": 31.775995016098022,
  "probe_out": {}
}